# xmcd
#
# Track frame offsets: 
#        150
#        4417
#        21622
#        38981
#        59384
#        71387
#        90559
#        103668
#        117667
#        134711
#        140424
#        154308
#        165416
#        180694
#        183741
#        197513
#        210411
#        222505
#        232209
#        246905
#        259873
#        275994
#        290342
#        303877
#
# Disc length: 4402 seconds
#
# Revision: 0
# Processed by: cddbd v1.5.2PL0 Copyright (c) Steve Scherf et al.
# Submitted via: ExactAudioCopy v0.99pb5
#
DISCID=7c113018
DTITLE=The Nobodies - Now Culture
DYEAR=2003
DGENRE=Hip-hop
TTITLE0=Press Start
TTITLE1=Now Culture
TTITLE2=Rockin It
TTITLE3=Crazy With It
TTITLE4=Du Et
TTITLE5=What's Love?
TTITLE6=Do or Die
TTITLE7=Say Word
TTITLE8=Shine
TTITLE9=Part 1
TTITLE10=Down With That
TTITLE11=I Elevate
TTITLE12=Mind Wars
TTITLE13=Beat Box
TTITLE14=The Half
TTITLE15=Street Life
TTITLE16=Soul Man
TTITLE17=Part 2
TTITLE18=Soul Clap
TTITLE19=Uh Uh
TTITLE20=The Reality
TTITLE21=Dear You
TTITLE22=It's Hip Hop
TTITLE23=Game Over
EXTD=
EXTT0=
EXTT1=
EXTT2=
EXTT3=
EXTT4=
EXTT5=
EXTT6=
EXTT7=
EXTT8=
EXTT9=
EXTT10=
EXTT11=
EXTT12=
EXTT13=
EXTT14=
EXTT15=
EXTT16=
EXTT17=
EXTT18=
EXTT19=
EXTT20=
EXTT21=
EXTT22=
EXTT23=
PLAYORDER=
